<svg width="57" height="56" viewBox="0 0 57 56" fill="none" xmlns="http://www.w3.org/2000/svg">
<path d="M12.5142 12.7686H43.7991V43.2315H12.5142V12.7686Z" fill="url(#paint0_linear_102_5169)"/>
<path d="M23.9266 28.2768H26.6996L25.3131 22.9294L23.9266 28.2768ZM14.8809 15.1539V40.8612H41.4717V15.1539H14.8809ZM28.2215 34.1398L27.2069 30.6646H23.4531L22.4385 34.1398H19.8683L23.4869 21.8533V20.5081H26.9364L31.0622 34.1398H28.2215V34.1398ZM35.053 34.1398H32.2799V23.7703H35.053V34.1398ZM33.6832 22.526C32.8894 22.526 32.2458 21.8935 32.2458 21.1135C32.2458 20.3334 32.8893 19.701 33.6832 19.701C34.4772 19.701 35.1206 20.3334 35.1206 21.1135C35.1206 21.8935 34.4771 22.526 33.6832 22.526Z" fill="url(#paint1_linear_102_5169)"/>
<defs>
<linearGradient id="paint0_linear_102_5169" x1="43.6362" y1="12.6065" x2="13.1467" y2="43.2662" gradientUnits="userSpaceOnUse">
<stop stop-color="#FFAA2A"/>
<stop offset="1" stop-color="#FFC06C"/>
</linearGradient>
<linearGradient id="paint1_linear_102_5169" x1="28.1763" y1="15.1107" x2="28.1763" y2="40.7314" gradientUnits="userSpaceOnUse">
<stop stop-color="#251200"/>
<stop offset="1"/>
</linearGradient>
</defs>
</svg>
