<svg width="205" height="206" viewBox="0 0 205 206" fill="none" xmlns="http://www.w3.org/2000/svg">
<path d="M102.44 205.16H101.99C45.7532 205.16 0 159.393 0 103.14V102.69C0 46.4372 45.7532 0.67041 101.99 0.67041H102.44C158.676 0.67041 204.429 46.4372 204.429 102.69V103.14C204.429 159.393 158.676 205.16 102.44 205.16ZM101.99 7.59217C49.566 7.59217 6.91972 50.2511 6.91972 102.69V103.14C6.91972 155.579 49.566 198.238 101.99 198.238H102.44C154.863 198.238 197.51 155.579 197.51 103.14V102.69C197.51 50.2511 154.863 7.59217 102.44 7.59217H101.99Z" fill="#03D9C8"/>
<path d="M94.5719 106.629C92.8558 104.476 90.8906 102.829 88.6901 101.714C90.6346 100.531 92.3091 99.0772 93.6931 97.3467C96.025 94.4257 97.2083 90.764 97.2083 86.4586C97.2083 82.8663 96.2603 79.5646 94.3851 76.6506C92.5167 73.7365 89.735 71.3969 86.116 69.6942C82.5731 68.026 78.3036 67.1816 73.4391 67.1816H45.7671V138.663H74.7123C79.4523 138.663 83.6872 137.797 87.2924 136.095C90.9667 134.364 93.8315 131.942 95.7967 128.903C97.7688 125.85 98.7722 122.383 98.7722 118.597C98.7722 114.16 97.3605 110.138 94.5719 106.636V106.629ZM79.8744 93.6019C78.1652 94.9863 75.6672 95.6923 72.4634 95.6923H60.4923V79.8554H72.4634C75.6534 79.8554 78.1376 80.5821 79.8467 82.0219C81.4867 83.3993 82.2825 85.3029 82.2825 87.8224C82.2825 90.3419 81.4936 92.2937 79.8744 93.6019ZM60.4923 108.373H73.3422C76.7052 108.373 79.2931 109.19 81.2514 110.872C83.1267 112.484 84.0401 114.623 84.0401 117.42C84.0401 120.216 83.1959 122.189 81.4521 123.663C79.6461 125.193 77.0512 125.968 73.7297 125.968H60.4923V108.373Z" fill="#03D9C8"/>
<path d="M155.306 94.6749C153.078 90.6465 149.923 87.4695 145.923 85.2407C141.931 83.0119 137.315 81.8835 132.222 81.8835C127.129 81.8835 122.168 83.0464 118.078 85.3375C113.982 87.6355 110.757 90.9372 108.501 95.1664C106.246 99.3886 105.104 104.345 105.104 109.896C105.104 115.447 106.28 120.41 108.605 124.625C110.93 128.848 114.182 132.17 118.279 134.496C122.368 136.822 127.06 137.998 132.229 137.998C138.574 137.998 143.965 136.385 148.255 133.208C152.545 130.031 155.549 125.892 157.189 120.915L157.306 120.562H144.754L144.678 120.715C142.263 125.608 138.076 128.086 132.222 128.086C128.146 128.086 124.659 126.792 121.856 124.252C119.123 121.767 117.552 118.444 117.186 114.367H158.233L158.268 114.139C158.531 112.499 158.662 110.643 158.662 108.629C158.662 103.396 157.535 98.7034 155.306 94.6749ZM122.05 95.3948C124.721 93.0068 127.98 91.8025 131.731 91.8025C135.876 91.8025 139.398 93.0276 142.2 95.4503C144.927 97.8037 146.373 100.967 146.498 104.843H117.303C117.857 100.904 119.455 97.7275 122.057 95.4018L122.05 95.3948Z" fill="#03D9C8"/>
<path d="M145.55 68.822H118.21V75.3009H145.55V68.822Z" fill="#03D9C8"/>
</svg>
