<svg width="205" height="206" viewBox="0 0 205 206" fill="none" xmlns="http://www.w3.org/2000/svg">
<path d="M102.44 205.16H101.99C45.7532 205.16 0 159.394 0 103.141V102.69C0 46.4374 45.7532 0.670654 101.99 0.670654H102.44C158.676 0.670654 204.429 46.4374 204.429 102.69V103.141C204.429 159.394 158.676 205.16 102.44 205.16ZM101.99 7.59242C49.566 7.59242 6.91972 50.2512 6.91972 102.69V103.141C6.91972 155.58 49.566 198.239 101.99 198.239H102.44C154.863 198.239 197.51 155.58 197.51 103.141V102.69C197.51 50.2512 154.863 7.59242 102.44 7.59242H101.99Z" fill="black"/>
<path d="M94.5719 106.629C92.8558 104.476 90.8906 102.829 88.6901 101.715C90.6346 100.531 92.3091 99.0773 93.6931 97.3469C96.025 94.4259 97.2083 90.7643 97.2083 86.459C97.2083 82.8666 96.2603 79.5649 94.3851 76.6508C92.5167 73.7367 89.735 71.3972 86.116 69.6945C82.5731 68.0263 78.3036 67.1819 73.4391 67.1819H45.7671V138.663H74.7123C79.4523 138.663 83.6872 137.798 87.2924 136.095C90.9667 134.364 93.8315 131.942 95.7967 128.903C97.7688 125.851 98.7722 122.383 98.7722 118.597C98.7722 114.16 97.3605 110.138 94.5719 106.636V106.629ZM79.8744 93.6023C78.1652 94.9866 75.6672 95.6927 72.4634 95.6927H60.4923V79.8556H72.4634C75.6534 79.8556 78.1376 80.5824 79.8467 82.0221C81.4867 83.3995 82.2825 85.303 82.2825 87.8225C82.2825 90.3421 81.4936 92.2941 79.8744 93.6023ZM60.4923 108.373H73.3422C76.7052 108.373 79.2931 109.19 81.2514 110.872C83.1267 112.485 84.0401 114.624 84.0401 117.42C84.0401 120.216 83.1959 122.189 81.4521 123.663C79.6461 125.193 77.0512 125.968 73.7297 125.968H60.4923V108.373Z" fill="black"/>
<path d="M155.306 94.6819C153.078 90.6535 149.923 87.4765 145.923 85.2477C141.931 83.0189 137.315 81.8906 132.222 81.8906C127.129 81.8906 122.168 83.0535 118.078 85.3446C113.982 87.6426 110.757 90.9443 108.501 95.1735C106.246 99.3958 105.104 104.352 105.104 109.903C105.104 115.454 106.28 120.417 108.605 124.632C110.93 128.855 114.182 132.177 118.279 134.503C122.368 136.829 127.06 138.005 132.229 138.005C138.574 138.005 143.965 136.393 148.255 133.215C152.545 130.038 155.549 125.899 157.189 120.922L157.306 120.569H144.754L144.678 120.722C142.263 125.615 138.076 128.093 132.222 128.093C128.146 128.093 124.659 126.799 121.856 124.259C119.123 121.774 117.552 118.451 117.186 114.374H158.233L158.268 114.146C158.531 112.506 158.662 110.651 158.662 108.636C158.662 103.403 157.535 98.7104 155.306 94.6819ZM122.05 95.4018C124.721 93.0138 127.98 91.8095 131.731 91.8095C135.876 91.8095 139.398 93.0346 142.2 95.4573C144.927 97.8107 146.373 100.974 146.498 104.85H117.303C117.857 100.912 119.455 97.7345 122.057 95.4088L122.05 95.4018Z" fill="black"/>
<path d="M145.55 68.8293H118.21V75.308H145.55V68.8293Z" fill="black"/>
</svg>
