<svg width="57" height="56" viewBox="0 0 57 56" fill="none" xmlns="http://www.w3.org/2000/svg">
<path fill-rule="evenodd" clip-rule="evenodd" d="M19.0121 15.6083C17.2271 15.6083 15.9062 17.1621 15.9653 18.8471C16.0221 20.4659 15.9484 22.5625 15.4176 24.2722C14.885 25.9868 13.9848 27.0733 12.5142 27.2128V28.7873C13.9848 28.9271 14.885 30.013 15.4175 31.7278C15.9484 33.4376 16.022 35.5342 15.9653 37.153C15.9061 38.8378 17.227 40.3917 19.0124 40.3917H37.3035C39.0886 40.3917 40.4092 38.838 40.35 37.153C40.2933 35.5342 40.367 33.4376 40.8978 31.7278C41.4304 30.013 42.3284 28.9266 43.7991 28.7873V27.2128C42.3284 27.073 41.4305 25.9871 40.8978 24.2722C40.367 22.5627 40.2933 20.4659 40.35 18.8471C40.4092 17.1623 39.0886 15.6083 37.3035 15.6083H19.0119H19.0121ZM33.7243 30.8641C33.7243 33.1843 31.984 34.5914 29.096 34.5914H24.1797C24.0391 34.5914 23.9042 34.5358 23.8048 34.437C23.7053 34.3381 23.6495 34.2039 23.6495 34.0641V21.936C23.6495 21.7962 23.7053 21.6621 23.8048 21.5632C23.9042 21.4643 24.0391 21.4087 24.1797 21.4087H29.068C31.4761 21.4087 33.0566 22.7059 33.0566 24.6975C33.0566 26.0954 31.9934 27.3468 30.6389 27.5661V27.639C32.4827 27.8401 33.7243 29.1101 33.7243 30.8641V30.8641ZM28.5599 23.0803H25.7567V27.0178H28.1177C29.9429 27.0178 30.9492 26.2869 30.9492 24.9806C30.949 23.7563 30.0838 23.0803 28.5599 23.0803ZM25.7567 28.5801V32.9193H28.663C30.5634 32.9193 31.5699 32.161 31.5699 30.736C31.5699 29.311 30.5351 28.5798 28.5408 28.5798H25.7567V28.5801Z" fill="#7952B3"/>
</svg>
