<svg width="56" height="56" viewBox="0 0 56 56" fill="none" xmlns="http://www.w3.org/2000/svg">
<path d="M40.5484 13H35.6978V20.0669H42.7955V14.9927C42.7974 14.9927 42.4447 13.1927 40.5484 13Z" fill="#1967D2"/>
<path d="M35.6992 42.9672V42.9846V43L42.7969 35.9331H42.7333L35.6992 42.9672Z" fill="#1967D2"/>
<path d="M42.797 35.9331V35.8695L42.7334 35.9331H42.797Z" fill="#FBBC05"/>
<path d="M42.7969 20.0669H35.6992V35.8696H42.7969V20.0669Z" fill="#FBBC05"/>
<path d="M42.7333 35.9331H35.6992V42.9672L42.7333 35.9331Z" fill="#EA4335"/>
<path d="M35.6992 35.9331H42.7333L42.7969 35.8695H35.6992V35.9331Z" fill="#EA4335"/>
<path d="M35.6821 42.9846H35.6995V42.9672L35.6821 42.9846Z" fill="#34A853"/>
<path d="M19.897 35.8695V42.9846H35.6823L35.6996 35.8695H19.897Z" fill="#34A853"/>
<path d="M35.6995 35.9331V35.8695L35.6821 42.9846L35.6995 42.9672V35.9331Z" fill="#34A853"/>
<path d="M12.959 35.8695V40.8165C13.0226 42.4218 14.7493 42.9846 14.7493 42.9846H19.8967V35.8695H12.959Z" fill="#188038"/>
<path d="M19.8967 20.0669H35.6994V13H14.9497C14.9497 13 13.0862 13.1927 12.959 15.1835V35.8695H19.8967V20.0669Z" fill="#4285F4"/>
<path d="M25.0667 32.6708C24.7052 32.6708 24.3566 32.6235 24.0209 32.5288C23.6938 32.4341 23.3925 32.2921 23.117 32.1027C22.8416 31.9047 22.5963 31.6594 22.3811 31.3667C22.1745 31.0741 22.0152 30.7341 21.9033 30.3467L23.4915 29.714C23.6034 30.1444 23.7928 30.4715 24.0596 30.6953C24.3265 30.9105 24.6622 31.0181 25.0667 31.0181C25.2475 31.0181 25.4197 30.9923 25.5832 30.9406C25.7468 30.8804 25.8888 30.7986 26.0093 30.6953C26.1298 30.592 26.2245 30.4715 26.2934 30.3338C26.3708 30.1874 26.4096 30.0239 26.4096 29.8431C26.4096 29.4644 26.2676 29.1674 25.9835 28.9522C25.708 28.737 25.325 28.6294 24.8343 28.6294H24.0725V27.0929H24.7698C24.9419 27.0929 25.1098 27.0714 25.2733 27.0283C25.4369 26.9853 25.5789 26.9207 25.6994 26.8347C25.8285 26.74 25.9275 26.6238 25.9964 26.486C26.0739 26.3397 26.1126 26.1718 26.1126 25.9825C26.1126 25.6898 26.0093 25.4531 25.8027 25.2723C25.5961 25.0829 25.3164 24.9882 24.9634 24.9882C24.5847 24.9882 24.292 25.0915 24.0854 25.2981C23.8875 25.4961 23.7497 25.7199 23.6723 25.9696L22.1228 25.3369C22.2003 25.1217 22.3165 24.9022 22.4714 24.6784C22.6264 24.4459 22.8201 24.2394 23.0525 24.0586C23.2935 23.8692 23.5733 23.7186 23.8918 23.6067C24.2103 23.4862 24.5761 23.4259 24.9893 23.4259C25.4111 23.4259 25.7941 23.4862 26.1384 23.6067C26.4914 23.7272 26.7926 23.895 27.0423 24.1102C27.2919 24.3168 27.4856 24.5665 27.6233 24.8591C27.761 25.1432 27.8299 25.4531 27.8299 25.7888C27.8299 26.047 27.7955 26.2794 27.7266 26.486C27.6663 26.6926 27.5846 26.8777 27.4813 27.0412C27.378 27.2048 27.2575 27.3468 27.1197 27.4673C26.9906 27.5792 26.8572 27.6696 26.7195 27.7385V27.8418C27.1327 28.0053 27.4727 28.2679 27.7395 28.6294C28.015 28.9909 28.1527 29.4472 28.1527 29.9981C28.1527 30.3854 28.0795 30.7427 27.9332 31.0698C27.7869 31.3883 27.576 31.668 27.3005 31.909C27.0337 32.1501 26.7109 32.3351 26.3321 32.4643C25.9534 32.602 25.5316 32.6708 25.0667 32.6708Z" fill="#4285F4"/>
<path d="M31.2361 32.4643V25.6209L29.6738 26.2794L29.054 24.8462L31.6493 23.6325H32.9276V32.4643H31.2361Z" fill="#4285F4"/>
</svg>
