<svg width="206" height="206" viewBox="0 0 206 206" fill="none" xmlns="http://www.w3.org/2000/svg">
<path d="M103.281 205.16H102.832C46.595 205.16 0.841797 159.393 0.841797 103.14V102.69C0.841797 46.4372 46.595 0.67041 102.832 0.67041H103.281C159.518 0.67041 205.271 46.4372 205.271 102.69V103.14C205.271 159.393 159.518 205.16 103.281 205.16ZM102.832 7.59217C50.4078 7.59217 7.76152 50.2511 7.76152 102.69V103.14C7.76152 155.579 50.4078 198.238 102.832 198.238H103.281C155.705 198.238 198.351 155.579 198.351 103.14V102.69C198.351 50.2511 155.705 7.59217 103.281 7.59217H102.832Z" fill="#03D9C8"/>
<path d="M165.019 105.487C165.033 105.272 165.04 105.05 165.047 104.829L165.165 102.081L165.061 102.053C164.86 87.5315 159.684 73.771 150.349 62.7793L150.46 62.6616L147.519 59.6368C135.721 47.5167 119.923 40.8442 103.025 40.8442C94.3481 40.8442 86.0029 42.5954 78.1628 46.0356L78.1005 45.9871L75.5541 47.2469C72.1842 48.915 69.0011 50.8669 66.0326 53.0749C64.0535 54.5493 62.1714 56.1275 60.3861 57.8164C59.7218 58.4463 59.0782 59.09 58.4416 59.7476C49.7159 68.7667 43.7926 80.3329 41.7512 92.9859L41.0939 97.0836L41.2392 97.1182C41.0593 99.0424 40.9624 100.987 40.9624 102.925C40.9624 119.379 47.5223 135.153 59.0713 146.747L59.0229 146.837L61.6109 149.156C73.0076 159.372 87.7121 165.007 103.019 165.007C104.105 165.007 105.184 164.979 106.257 164.924C113.786 164.543 121.072 162.813 127.95 159.788C127.95 159.788 127.957 159.788 127.964 159.788L130.656 158.604V158.521C150.688 148.519 164.064 128.079 165.012 105.66C165.012 105.653 165.012 105.646 165.012 105.639C165.012 105.632 165.012 105.618 165.012 105.611V105.514L165.019 105.487ZM155.927 108.878C155.899 109.1 155.871 109.321 155.844 109.543C155.795 109.923 155.747 110.304 155.691 110.678C155.657 110.92 155.615 111.162 155.574 111.405C155.518 111.758 155.456 112.111 155.394 112.464C155.345 112.72 155.297 112.969 155.242 113.225C155.172 113.564 155.11 113.903 155.034 114.236C154.979 114.492 154.916 114.748 154.854 115.004C154.778 115.336 154.695 115.662 154.612 115.987C154.543 116.243 154.474 116.506 154.404 116.762C154.314 117.08 154.224 117.406 154.134 117.724C154.058 117.98 153.982 118.243 153.899 118.499C153.802 118.818 153.699 119.129 153.602 119.448C153.519 119.704 153.429 119.96 153.339 120.216C153.228 120.528 153.117 120.839 153.007 121.151C152.917 121.4 152.82 121.656 152.723 121.905C152.605 122.217 152.481 122.521 152.356 122.832C152.259 123.082 152.155 123.324 152.052 123.573C151.92 123.878 151.789 124.182 151.65 124.487C151.54 124.729 151.436 124.971 151.325 125.207C151.18 125.511 151.034 125.816 150.889 126.12C150.778 126.356 150.661 126.584 150.543 126.819C150.391 127.124 150.225 127.429 150.066 127.733C149.948 127.955 149.83 128.176 149.713 128.398C149.54 128.709 149.36 129.021 149.18 129.332C149.062 129.54 148.945 129.747 148.827 129.948C148.626 130.287 148.419 130.626 148.211 130.959C148.107 131.125 148.004 131.298 147.9 131.471C147.609 131.928 147.312 132.378 147.007 132.828C146.979 132.876 146.945 132.918 146.917 132.966C146.578 133.457 146.232 133.942 145.879 134.426C145.775 134.565 145.665 134.703 145.561 134.842C145.312 135.181 145.056 135.513 144.8 135.845C144.661 136.025 144.516 136.198 144.371 136.378C144.142 136.662 143.907 136.953 143.672 137.23C143.513 137.417 143.347 137.604 143.187 137.79C142.959 138.054 142.731 138.316 142.496 138.579C142.323 138.773 142.15 138.96 141.977 139.147C141.748 139.396 141.513 139.646 141.278 139.895C141.098 140.082 140.911 140.268 140.724 140.455C140.489 140.691 140.254 140.933 140.011 141.168C139.818 141.355 139.631 141.535 139.437 141.722C139.195 141.95 138.953 142.179 138.71 142.4C138.51 142.58 138.309 142.76 138.108 142.94C137.859 143.162 137.61 143.376 137.354 143.591C137.147 143.764 136.946 143.937 136.731 144.11C136.475 144.318 136.219 144.532 135.956 144.733C135.749 144.899 135.534 145.065 135.32 145.231C135.057 145.432 134.787 145.633 134.524 145.833C134.309 145.993 134.088 146.152 133.874 146.311C133.604 146.505 133.327 146.699 133.05 146.886C132.829 147.038 132.614 147.19 132.393 147.336C132.109 147.522 131.818 147.709 131.535 147.889C131.313 148.028 131.092 148.173 130.87 148.312C130.663 148.443 130.448 148.561 130.234 148.692C129.23 135.596 126.296 122.036 121.639 108.996C133.175 106.4 144.883 106.317 155.941 108.781C155.941 108.816 155.941 108.851 155.934 108.878H155.927ZM118.401 100.704C116.837 97.0005 115.163 93.3805 113.363 89.8781C124.947 84.6106 135.458 77.5297 144.177 69.1336C151.346 77.8481 155.518 88.5144 156.162 99.8176C143.921 97.3604 131.036 97.665 118.394 100.704H118.401ZM51.342 90.0372C51.5427 89.2274 51.7641 88.4176 52.0063 87.6146C52.0478 87.4693 52.0962 87.3169 52.1378 87.1715C52.3799 86.3894 52.636 85.6142 52.9128 84.8459C52.9335 84.7906 52.9474 84.7421 52.9681 84.6867C53.0027 84.5898 53.0373 84.4928 53.0719 84.3959C53.3556 83.6345 53.6532 82.887 53.9646 82.1394C54.013 82.0287 54.0545 81.9249 54.103 81.8141C54.1099 81.7933 54.1237 81.7727 54.1306 81.745C54.4559 80.9836 54.8018 80.236 55.1686 79.4954C55.224 79.3777 55.2862 79.2601 55.3416 79.1355C55.7153 78.3879 56.1028 77.6543 56.511 76.9275C56.5733 76.8098 56.6356 76.6991 56.7048 76.5883C57.1061 75.8823 57.5282 75.1832 57.9642 74.491C58.0126 74.4149 58.061 74.3387 58.1095 74.2625C58.1372 74.2141 58.1717 74.1656 58.2063 74.1172C58.6492 73.425 59.1128 72.7467 59.5834 72.0822C59.6664 71.9646 59.7564 71.84 59.8394 71.7223C60.3238 71.0509 60.8289 70.3863 61.3479 69.7357C61.4309 69.6318 61.5209 69.528 61.6039 69.4242C62.1298 68.7736 62.6696 68.1298 63.2301 67.4999C63.2993 67.4169 63.3754 67.3407 63.4446 67.2576C64.0189 66.6139 64.614 65.991 65.223 65.3749C65.2921 65.3057 65.3544 65.2434 65.4236 65.1742C66.0187 64.5858 66.6207 64.0044 67.2435 63.4437C67.2989 63.3953 67.3542 63.3399 67.4096 63.2915C67.4442 63.2638 67.4719 63.2362 67.5065 63.2085C68.1292 62.6547 68.7658 62.1148 69.4094 61.5818C69.5132 61.4987 69.617 61.4089 69.7208 61.3258C70.3781 60.7997 71.0424 60.2945 71.7275 59.7961C71.8451 59.713 71.9628 59.623 72.0873 59.5399C72.7724 59.0485 73.4713 58.5708 74.184 58.114C74.2947 58.0448 74.4123 57.9688 74.5231 57.8996C75.2566 57.4358 75.997 56.9858 76.7581 56.5566C76.8135 56.5289 76.8688 56.4944 76.9242 56.4667C85.8299 64.2191 93.9882 74.1171 100.797 85.4203C84.3698 91.2 67.0221 92.8752 51.2935 90.2034C51.3074 90.148 51.3212 90.0857 51.3351 90.0234L51.342 90.0372ZM105.593 49.718C105.876 49.7318 106.16 49.7594 106.444 49.7732C107.018 49.8079 107.586 49.8495 108.153 49.898C108.485 49.9326 108.817 49.974 109.149 50.0086C109.661 50.064 110.173 50.1263 110.686 50.2025C111.038 50.2509 111.384 50.3132 111.73 50.3686C112.222 50.4517 112.706 50.5348 113.19 50.6248C113.543 50.694 113.896 50.7631 114.249 50.8392C114.727 50.943 115.204 51.0469 115.675 51.1645C116.028 51.2476 116.374 51.3377 116.72 51.4276C117.19 51.5522 117.661 51.6838 118.131 51.8222C118.47 51.9191 118.809 52.0229 119.148 52.1267C119.626 52.279 120.103 52.4382 120.581 52.6043C120.899 52.7151 121.217 52.8189 121.536 52.9365C122.048 53.1303 122.56 53.3312 123.065 53.5388C123.335 53.6496 123.605 53.7464 123.868 53.8641C124.594 54.1756 125.314 54.5009 126.027 54.84C126.096 54.8746 126.172 54.9093 126.241 54.9439C126.961 55.29 127.673 55.6568 128.372 56.0375C128.628 56.1759 128.877 56.3213 129.127 56.4667C129.604 56.7367 130.082 57.0066 130.559 57.2973C130.85 57.4703 131.126 57.6572 131.41 57.8372C131.839 58.1071 132.261 58.3771 132.683 58.6608C132.981 58.8616 133.271 59.0624 133.562 59.27C133.963 59.5538 134.365 59.8376 134.759 60.1353C135.05 60.3498 135.334 60.5713 135.624 60.7928C136.012 61.0974 136.399 61.4018 136.78 61.7202C137.057 61.9486 137.333 62.184 137.61 62.4193C137.756 62.5439 137.901 62.6824 138.046 62.807C129.895 70.6563 120.006 77.2459 109.094 82.1257C102.423 70.7948 94.4519 60.7236 85.6984 52.5213C91.2342 50.6109 97.0329 49.6418 103.012 49.6418C103.877 49.6418 104.735 49.6626 105.593 49.7041V49.718ZM49.9165 98.9178C55.2586 99.8176 60.7597 100.268 66.337 100.268C79.1939 100.268 92.4728 97.9003 105.164 93.2419C106.838 96.4606 108.416 99.7762 109.883 103.182C109.142 103.431 108.409 103.68 107.675 103.95C89.0614 110.837 73.6373 123.096 63.6383 138.759C54.7672 129.007 49.7643 116.222 49.7643 102.919C49.7643 101.583 49.8197 100.247 49.9165 98.9178ZM100.659 156.126C100.403 156.112 100.147 156.092 99.8908 156.078C99.3649 156.05 98.8459 156.015 98.32 155.967C98.0155 155.939 97.718 155.905 97.4135 155.87C96.943 155.822 96.4655 155.766 95.995 155.704C95.6767 155.662 95.3583 155.614 95.04 155.566C94.5903 155.496 94.1405 155.427 93.6907 155.344C93.3655 155.289 93.0403 155.226 92.722 155.157C92.2791 155.067 91.8431 154.977 91.4072 154.88C91.082 154.811 90.7636 154.735 90.4453 154.652C90.0094 154.548 89.5735 154.43 89.1444 154.32C88.8261 154.236 88.5147 154.147 88.2034 154.057C87.7674 153.932 87.3315 153.794 86.8955 153.655C86.5911 153.558 86.2935 153.468 85.989 153.364C85.5393 153.212 85.0895 153.046 84.6466 152.887C84.3698 152.783 84.0861 152.686 83.8093 152.575C83.3249 152.388 82.8406 152.188 82.3562 151.98C82.1278 151.883 81.8995 151.793 81.6711 151.696C80.9792 151.392 80.2941 151.073 79.616 150.741C79.6021 150.741 79.5883 150.727 79.5745 150.72C78.8756 150.381 78.1905 150.021 77.5055 149.647C77.3048 149.537 77.1041 149.412 76.8965 149.301C76.426 149.038 75.9554 148.768 75.4918 148.491C75.2427 148.339 74.9936 148.18 74.7445 148.021C74.3362 147.765 73.928 147.509 73.5266 147.239C73.2637 147.066 73.0007 146.879 72.7447 146.699C72.3641 146.436 71.9904 146.173 71.6168 145.896C71.3469 145.702 71.084 145.501 70.821 145.3C70.6203 145.148 70.4197 144.989 70.219 144.83C79.1385 130.128 93.407 118.617 110.741 112.201C111.53 111.91 112.332 111.64 113.135 111.37C118.076 125.006 121.01 139.244 121.674 152.804C120.906 153.094 120.131 153.364 119.356 153.614C119.148 153.683 118.934 153.738 118.726 153.8C118.117 153.987 117.501 154.174 116.886 154.34C116.581 154.423 116.27 154.493 115.958 154.576C115.432 154.707 114.907 154.832 114.374 154.95C114.042 155.026 113.703 155.088 113.363 155.157C112.851 155.261 112.339 155.351 111.82 155.441C111.481 155.496 111.135 155.552 110.789 155.6C110.263 155.676 109.738 155.746 109.205 155.801C108.873 155.842 108.547 155.877 108.215 155.912C107.634 155.967 107.053 156.008 106.471 156.043C106.188 156.064 105.911 156.085 105.627 156.098C104.762 156.14 103.89 156.168 103.019 156.168C102.23 156.168 101.448 156.147 100.666 156.112L100.659 156.126Z" fill="#03D9C8"/>
</svg>
