<svg width="206" height="206" viewBox="0 0 206 206" fill="none" xmlns="http://www.w3.org/2000/svg">
<path d="M103.281 205.16H102.832C46.595 205.16 0.841797 159.394 0.841797 103.141V102.69C0.841797 46.4374 46.595 0.670654 102.832 0.670654H103.281C159.518 0.670654 205.271 46.4374 205.271 102.69V103.141C205.271 159.394 159.518 205.16 103.281 205.16ZM102.832 7.59242C50.4078 7.59242 7.76152 50.2512 7.76152 102.69V103.141C7.76152 155.58 50.4078 198.239 102.832 198.239H103.281C155.705 198.239 198.351 155.58 198.351 103.141V102.69C198.351 50.2512 155.705 7.59242 103.281 7.59242H102.832Z" fill="#EA4C89"/>
<path d="M165.019 105.487C165.033 105.272 165.04 105.051 165.047 104.829L165.165 102.081L165.061 102.054C164.86 87.5319 159.684 73.7714 150.349 62.7796L150.46 62.6619L147.519 59.6371C135.721 47.5171 119.923 40.8445 103.025 40.8445C94.3481 40.8445 86.0029 42.5957 78.1628 46.0359L78.1005 45.9874L75.5541 47.2472C72.1842 48.9153 69.0011 50.8673 66.0326 53.0753C64.0535 54.5497 62.1714 56.1278 60.3861 57.8167C59.7218 58.4466 59.0782 59.0903 58.4416 59.7479C49.7159 68.767 43.7926 80.3332 41.7512 92.9861L41.0939 97.0839L41.2392 97.1184C41.0593 99.0427 40.9624 100.988 40.9624 102.926C40.9624 119.379 47.5223 135.154 59.0713 146.748L59.0229 146.837L61.6109 149.156C73.0076 159.373 87.7121 165.007 103.019 165.007C104.105 165.007 105.184 164.979 106.257 164.924C113.786 164.543 121.072 162.813 127.95 159.788C127.95 159.788 127.957 159.788 127.964 159.788L130.656 158.604V158.521C150.688 148.519 164.064 128.08 165.012 105.66C165.012 105.653 165.012 105.646 165.012 105.639C165.012 105.632 165.012 105.618 165.012 105.611V105.515L165.019 105.487ZM155.927 108.878C155.899 109.1 155.871 109.322 155.844 109.543C155.795 109.924 155.747 110.304 155.691 110.678C155.657 110.92 155.615 111.163 155.574 111.405C155.518 111.758 155.456 112.111 155.394 112.464C155.345 112.72 155.297 112.969 155.242 113.225C155.172 113.565 155.11 113.904 155.034 114.236C154.979 114.492 154.916 114.748 154.854 115.004C154.778 115.337 154.695 115.662 154.612 115.987C154.543 116.243 154.474 116.506 154.404 116.762C154.314 117.081 154.224 117.406 154.134 117.725C154.058 117.981 153.982 118.244 153.899 118.5C153.802 118.818 153.699 119.13 153.602 119.448C153.519 119.704 153.429 119.96 153.339 120.216C153.228 120.528 153.117 120.839 153.007 121.151C152.917 121.4 152.82 121.656 152.723 121.905C152.605 122.217 152.481 122.521 152.356 122.833C152.259 123.082 152.155 123.324 152.052 123.573C151.92 123.878 151.789 124.183 151.65 124.487C151.54 124.729 151.436 124.972 151.325 125.207C151.18 125.512 151.034 125.816 150.889 126.121C150.778 126.356 150.661 126.584 150.543 126.82C150.391 127.124 150.225 127.429 150.066 127.733C149.948 127.955 149.83 128.176 149.713 128.398C149.54 128.709 149.36 129.021 149.18 129.332C149.062 129.54 148.945 129.748 148.827 129.948C148.626 130.288 148.419 130.627 148.211 130.959C148.107 131.125 148.004 131.298 147.9 131.471C147.609 131.928 147.312 132.378 147.007 132.828C146.979 132.876 146.945 132.918 146.917 132.966C146.578 133.458 146.232 133.942 145.879 134.427C145.775 134.565 145.665 134.704 145.561 134.842C145.312 135.181 145.056 135.514 144.8 135.846C144.661 136.026 144.516 136.199 144.371 136.379C144.142 136.662 143.907 136.953 143.672 137.23C143.513 137.417 143.347 137.604 143.187 137.791C142.959 138.054 142.731 138.317 142.496 138.58C142.323 138.774 142.15 138.96 141.977 139.147C141.748 139.397 141.513 139.646 141.278 139.895C141.098 140.082 140.911 140.269 140.724 140.456C140.489 140.691 140.254 140.933 140.011 141.169C139.818 141.355 139.631 141.535 139.437 141.722C139.195 141.951 138.953 142.179 138.71 142.401C138.51 142.581 138.309 142.761 138.108 142.941C137.859 143.162 137.61 143.377 137.354 143.591C137.147 143.764 136.946 143.937 136.731 144.11C136.475 144.318 136.219 144.533 135.956 144.733C135.749 144.899 135.534 145.065 135.32 145.232C135.057 145.432 134.787 145.633 134.524 145.834C134.309 145.993 134.088 146.152 133.874 146.311C133.604 146.505 133.327 146.699 133.05 146.886C132.829 147.038 132.614 147.19 132.393 147.336C132.109 147.523 131.818 147.71 131.535 147.89C131.313 148.028 131.092 148.173 130.87 148.312C130.663 148.443 130.448 148.561 130.234 148.692C129.23 135.596 126.296 122.037 121.639 108.996C133.175 106.401 144.883 106.318 155.941 108.782C155.941 108.816 155.941 108.851 155.934 108.878H155.927ZM118.401 100.704C116.837 97.0009 115.163 93.3807 113.363 89.8783C124.947 84.6108 135.458 77.5299 144.177 69.1338C151.346 77.8483 155.518 88.5148 156.162 99.818C143.921 97.3608 131.036 97.6654 118.394 100.704H118.401ZM51.342 90.0375C51.5427 89.2276 51.7641 88.4178 52.0063 87.6148C52.0478 87.4695 52.0962 87.3173 52.1378 87.1719C52.3799 86.3898 52.636 85.6145 52.9128 84.8461C52.9335 84.7908 52.9474 84.7423 52.9681 84.687C53.0027 84.5901 53.0373 84.4932 53.0719 84.3963C53.3556 83.6349 53.6532 82.8873 53.9646 82.1398C54.013 82.029 54.0545 81.9252 54.103 81.8145C54.1099 81.7937 54.1237 81.7729 54.1306 81.7452C54.4559 80.9838 54.8018 80.2363 55.1686 79.4956C55.224 79.378 55.2862 79.2603 55.3416 79.1357C55.7153 78.3881 56.1028 77.6545 56.511 76.9277C56.5733 76.81 56.6356 76.6993 56.7048 76.5885C57.1061 75.8825 57.5282 75.1834 57.9642 74.4912C58.0126 74.4151 58.061 74.339 58.1095 74.2628C58.1372 74.2144 58.1717 74.1659 58.2063 74.1174C58.6492 73.4252 59.1128 72.7469 59.5834 72.0825C59.6664 71.9648 59.7564 71.8402 59.8394 71.7225C60.3238 71.0511 60.8289 70.3866 61.3479 69.736C61.4309 69.6321 61.5209 69.5284 61.6039 69.4245C62.1298 68.7739 62.6696 68.1301 63.2301 67.5003C63.2993 67.4172 63.3754 67.3411 63.4446 67.258C64.0189 66.6143 64.614 65.9913 65.223 65.3753C65.2921 65.3061 65.3544 65.2438 65.4236 65.1746C66.0187 64.5862 66.6207 64.0048 67.2435 63.4441C67.2989 63.3957 67.3542 63.3403 67.4096 63.2919C67.4442 63.2642 67.4719 63.2365 67.5065 63.2088C68.1292 62.6551 68.7658 62.1151 69.4094 61.5821C69.5132 61.4991 69.617 61.4091 69.7208 61.326C70.3781 60.8 71.0424 60.2947 71.7275 59.7963C71.8451 59.7133 71.9628 59.6233 72.0873 59.5402C72.7724 59.0488 73.4713 58.5711 74.184 58.1143C74.2947 58.0451 74.4123 57.969 74.5231 57.8998C75.2566 57.436 75.997 56.9861 76.7581 56.5569C76.8135 56.5292 76.8689 56.4946 76.9242 56.4669C85.8299 64.2193 93.9882 74.1175 100.797 85.4207C84.3698 91.2004 67.0221 92.8754 51.2935 90.2036C51.3074 90.1482 51.3212 90.0859 51.3351 90.0236L51.342 90.0375ZM105.593 49.7182C105.876 49.732 106.16 49.7598 106.444 49.7736C107.018 49.8082 107.586 49.8497 108.153 49.8982C108.485 49.9328 108.817 49.9743 109.149 50.0089C109.661 50.0643 110.173 50.1266 110.686 50.2028C111.038 50.2512 111.384 50.3135 111.73 50.3689C112.222 50.452 112.706 50.535 113.19 50.625C113.543 50.6942 113.896 50.7635 114.249 50.8396C114.727 50.9434 115.204 51.0472 115.675 51.1649C116.028 51.248 116.374 51.338 116.72 51.4279C117.19 51.5525 117.661 51.684 118.131 51.8224C118.47 51.9194 118.809 52.0232 119.148 52.127C119.626 52.2793 120.103 52.4385 120.581 52.6046C120.899 52.7154 121.217 52.8192 121.536 52.9368C122.048 53.1307 122.56 53.3314 123.065 53.539C123.335 53.6498 123.605 53.7467 123.868 53.8644C124.594 54.1759 125.314 54.5012 126.027 54.8403C126.096 54.8749 126.172 54.9096 126.241 54.9442C126.961 55.2903 127.673 55.6571 128.372 56.0378C128.628 56.1762 128.877 56.3216 129.127 56.4669C129.604 56.7369 130.082 57.0069 130.559 57.2976C130.85 57.4706 131.126 57.6575 131.41 57.8375C131.839 58.1075 132.261 58.3774 132.683 58.6612C132.981 58.8619 133.271 59.0626 133.562 59.2703C133.963 59.5541 134.365 59.8379 134.759 60.1355C135.05 60.3501 135.334 60.5715 135.624 60.793C136.012 61.0976 136.399 61.4022 136.78 61.7137C137.057 61.9421 137.333 62.1774 137.61 62.4128C137.756 62.5374 137.901 62.6758 138.046 62.8004C129.895 70.6496 120.006 77.2392 109.094 82.119C102.423 70.7881 94.4519 60.7169 85.6984 52.5146C91.2342 50.6042 97.0329 49.6351 103.012 49.6351C103.877 49.6351 104.735 49.656 105.593 49.6975V49.7182ZM49.9165 98.9181C55.2586 99.818 60.7597 100.268 66.337 100.268C79.1939 100.268 92.4728 97.9007 105.164 93.2423C106.838 96.4609 108.416 99.7764 109.883 103.182C109.142 103.431 108.409 103.68 107.675 103.95C89.0614 110.837 73.6373 123.096 63.6383 138.76C54.7672 129.007 49.7643 116.223 49.7643 102.919C49.7643 101.583 49.8197 100.247 49.9165 98.9181ZM100.659 156.126C100.403 156.113 100.147 156.092 99.8908 156.078C99.3649 156.05 98.8459 156.016 98.32 155.967C98.0155 155.94 97.718 155.905 97.4135 155.87C96.943 155.822 96.4655 155.767 95.995 155.704C95.6767 155.663 95.3583 155.614 95.04 155.566C94.5903 155.497 94.1405 155.427 93.6907 155.344C93.3655 155.289 93.0403 155.227 92.722 155.157C92.2791 155.067 91.8431 154.978 91.4072 154.881C91.082 154.811 90.7636 154.735 90.4453 154.652C90.0094 154.548 89.5735 154.431 89.1444 154.32C88.8261 154.237 88.5147 154.147 88.2034 154.057C87.7674 153.932 87.3315 153.794 86.8955 153.655C86.5911 153.559 86.2935 153.468 85.989 153.365C85.5393 153.212 85.0895 153.046 84.6466 152.887C84.3698 152.783 84.0861 152.686 83.8093 152.576C83.3249 152.389 82.8406 152.188 82.3562 151.98C82.1278 151.883 81.8995 151.793 81.6711 151.697C80.9792 151.392 80.2941 151.074 79.616 150.741C79.6021 150.741 79.5883 150.728 79.5745 150.721C78.8756 150.382 78.1905 150.022 77.5055 149.648C77.3048 149.537 77.1041 149.412 76.8965 149.302C76.426 149.039 75.9554 148.769 75.4918 148.492C75.2427 148.339 74.9936 148.18 74.7445 148.021C74.3362 147.765 73.928 147.509 73.5266 147.239C73.2637 147.066 73.0007 146.879 72.7447 146.699C72.3641 146.436 71.9904 146.173 71.6168 145.896C71.3469 145.702 71.084 145.502 70.821 145.301C70.6203 145.149 70.4197 144.989 70.219 144.83C79.1385 130.128 93.407 118.617 110.741 112.201C111.53 111.91 112.332 111.64 113.135 111.37C118.076 125.006 121.01 139.244 121.674 152.804C120.906 153.095 120.131 153.365 119.356 153.614C119.148 153.683 118.934 153.739 118.726 153.801C118.117 153.988 117.501 154.175 116.886 154.341C116.581 154.424 116.27 154.493 115.958 154.576C115.432 154.707 114.907 154.832 114.374 154.95C114.042 155.026 113.703 155.088 113.363 155.157C112.851 155.261 112.339 155.351 111.82 155.441C111.481 155.497 111.135 155.552 110.789 155.6C110.263 155.677 109.738 155.746 109.205 155.801C108.873 155.843 108.547 155.877 108.215 155.912C107.634 155.967 107.053 156.009 106.471 156.043C106.188 156.064 105.911 156.085 105.627 156.099C104.762 156.14 103.89 156.168 103.019 156.168C102.23 156.168 101.448 156.147 100.666 156.113L100.659 156.126Z" fill="#EA4C89"/>
</svg>
