<svg width="58" height="56" viewBox="0 0 58 56" fill="none" xmlns="http://www.w3.org/2000/svg">
<path d="M28.9999 12.8284C20.3619 12.8284 13.3574 19.7928 13.3574 28.384C13.3574 35.257 17.8395 41.0879 24.0548 43.1448C24.8365 43.2888 25.1236 42.8074 25.1236 42.3965C25.1236 42.0256 25.109 40.8001 25.1023 39.5003C20.7505 40.4413 19.8322 37.665 19.8322 37.665C19.1206 35.8669 18.0954 35.3889 18.0954 35.3889C16.6762 34.4234 18.2024 34.4432 18.2024 34.4432C19.7732 34.553 20.6003 36.0463 20.6003 36.0463C21.9954 38.4244 24.2596 37.7368 25.1523 37.3395C25.2926 36.3339 25.6981 35.6478 26.1454 35.2594C22.671 34.8659 19.0186 33.5321 19.0186 27.5716C19.0186 25.8734 19.6296 24.4857 20.6304 23.3963C20.4679 23.0045 19.9325 21.4224 20.7819 19.2797C20.7819 19.2797 22.0954 18.8616 25.0847 20.8742C26.3324 20.5294 27.6706 20.3567 28.9999 20.3508C30.3293 20.3567 31.6685 20.5294 32.9186 20.8742C35.9043 18.8616 37.2161 19.2797 37.2161 19.2797C38.0675 21.4224 37.5318 23.0045 37.3694 23.3963C38.3723 24.4857 38.9792 25.8733 38.9792 27.5716C38.9792 33.5462 35.3199 34.8619 31.8367 35.2469C32.3977 35.7297 32.8977 36.6764 32.8977 38.1276C32.8977 40.2089 32.8795 41.8841 32.8795 42.3965C32.8795 42.8104 33.1611 43.2955 33.9541 43.1428C40.1659 41.0835 44.6423 35.2547 44.6423 28.384C44.6423 19.7928 37.6388 12.8284 28.9999 12.8284Z" fill="white"/>
<path d="M19.2158 34.9878C19.1815 35.065 19.0591 35.0882 18.9478 35.0352C18.8343 34.9845 18.7705 34.8791 18.8073 34.8015C18.841 34.7219 18.9635 34.6997 19.0767 34.7532C19.1904 34.8038 19.2552 34.9102 19.2158 34.9878V34.9878ZM19.9853 35.6705C19.9107 35.7393 19.7648 35.7073 19.6658 35.5986C19.5635 35.4902 19.5444 35.3452 19.6201 35.2753C19.697 35.2066 19.8385 35.2387 19.941 35.3473C20.0433 35.457 20.0632 35.6011 19.9852 35.6706L19.9853 35.6705ZM20.5132 36.544C20.4173 36.6103 20.2605 36.5482 20.1637 36.4098C20.0679 36.2716 20.0679 36.1057 20.1658 36.0392C20.2629 35.9727 20.4173 36.0325 20.5154 36.1697C20.6111 36.3104 20.6111 36.4763 20.5131 36.5441L20.5132 36.544ZM21.4058 37.5558C21.3201 37.6497 21.1375 37.6246 21.0038 37.4962C20.8671 37.3708 20.829 37.1928 20.915 37.0987C21.0017 37.0046 21.1854 37.031 21.3201 37.1583C21.4559 37.2835 21.4974 37.4628 21.406 37.5558H21.4058ZM22.5595 37.8974C22.5219 38.0191 22.3459 38.0745 22.1688 38.0228C21.9919 37.9695 21.8761 37.8267 21.9118 37.7036C21.9486 37.581 22.1252 37.5233 22.3037 37.5787C22.4804 37.6318 22.5965 37.7734 22.5597 37.8974H22.5595ZM23.8727 38.0422C23.8771 38.1705 23.7269 38.2769 23.5409 38.2792C23.3538 38.2832 23.2025 38.1794 23.2005 38.0533C23.2005 37.9237 23.3474 37.8183 23.5344 37.8153C23.7203 37.8116 23.8727 37.9147 23.8727 38.0422V38.0422ZM25.1626 37.993C25.1849 38.1182 25.0556 38.2468 24.871 38.2809C24.6894 38.3139 24.5213 38.2366 24.4982 38.1126C24.4756 37.9842 24.6073 37.8558 24.7885 37.8225C24.9735 37.7905 25.139 37.8658 25.1626 37.993" fill="white"/>
</svg>
