<svg width="56" height="56" viewBox="0 0 56 56" fill="none" xmlns="http://www.w3.org/2000/svg">
<path d="M38.8133 15.6875L27.994 23.9329L16.9272 15.6875V15.6897L16.9406 15.7009V27.2467L27.8692 35.6705L38.8133 27.5721V15.6875Z" fill="#EA4335"/>
<path d="M41.6548 13.6819L38.8135 15.6875V27.5721L47.7542 20.8688V16.8307C47.7542 16.8307 46.6689 11.0634 41.6548 13.6819Z" fill="#FBBC05"/>
<path d="M38.8135 27.5721V42.9866H45.6661C45.6661 42.9866 47.616 42.7905 47.7564 40.62V20.8688L38.8135 27.5721Z" fill="#34A853"/>
<path d="M16.9406 43V27.2467L16.9272 27.2356L16.9406 43Z" fill="#C5221F"/>
<path d="M16.9274 15.6897L14.1016 13.6952C9.08751 11.0768 8 16.8419 8 16.8419V20.8799L16.9274 27.2356V15.6897Z" fill="#C5221F"/>
<path d="M16.9272 15.6898V27.2356L16.9406 27.2468V15.7009L16.9272 15.6898Z" fill="#C5221F"/>
<path d="M8 20.8821V40.6333C8.13817 42.8061 10.0903 43 10.0903 43H16.943L16.9274 27.2356L8 20.8821Z" fill="#4285F4"/>
</svg>
