<svg width="56" height="56" viewBox="0 0 56 56" fill="none" xmlns="http://www.w3.org/2000/svg">
<path d="M12.959 40.6C12.959 41.926 14.019 43 15.325 43H15.359C14.033 43 12.959 41.926 12.959 40.6Z" fill="#FBBC05"/>
<path d="M33.2911 22V28.266L41.5571 21.452V15.4C41.5571 14.074 40.4971 13 39.1911 13H21.2831L21.2671 22H33.2911Z" fill="#FBBC05"/>
<path d="M33.2909 34.5341H21.2469L21.2329 43.0001H39.1909C40.4989 43.0001 41.5569 41.9261 41.5569 40.6001V35.1361L33.2909 28.2681V34.5341V34.5341Z" fill="#34A853"/>
<path d="M21.283 13L12.959 22H21.269L21.283 13Z" fill="#EA4335"/>
<path d="M12.959 34.5341V40.6001C12.959 41.9261 14.033 43.0001 15.359 43.0001H21.233L21.247 34.5341H12.959V34.5341Z" fill="#1967D2"/>
<path d="M21.269 22H12.959V34.534H21.247L21.269 22Z" fill="#4285F4"/>
<path d="M48.8251 38.466V17.866C48.3591 15.132 45.4251 18.266 45.4251 18.266L41.5591 21.452V35.134L47.0931 39.732C49.0911 40 48.8251 38.466 48.8251 38.466Z" fill="#34A853"/>
<path d="M33.291 28.266L41.559 35.136V21.454L33.291 28.266Z" fill="#188038"/>
</svg>
