<svg width="57" height="56" viewBox="0 0 57 56" fill="none" xmlns="http://www.w3.org/2000/svg">
<path d="M40.963 12.4445H15.3502C13.7839 12.4445 12.5142 13.7071 12.5142 15.2648V40.7353C12.5142 42.2929 13.7839 43.5556 15.3502 43.5556H40.963C42.5293 43.5556 43.7991 42.2929 43.7991 40.7353V15.2648C43.7991 13.7071 42.5293 12.4445 40.963 12.4445Z" fill="#DC395F"/>
<path d="M22.9698 22.2329C24.0098 22.2329 24.881 21.4223 24.881 20.3599C24.881 19.2983 24.0098 18.4878 22.9698 18.4878C21.9298 18.4878 21.0588 19.2983 21.0588 20.3599C21.0588 21.4222 21.9298 22.2329 22.9698 22.2329ZM19.0071 32.2614C18.8948 32.7366 18.8385 33.2497 18.8385 33.6682C18.8385 35.3175 19.7378 36.4123 21.649 36.4123C23.234 36.4123 24.519 35.4763 25.4442 33.9649L24.8793 36.2196H28.0267L29.8256 29.0447C30.2753 27.2281 31.1465 26.2852 32.4676 26.2852C33.5074 26.2852 34.1538 26.9283 34.1538 27.9899C34.1538 28.2975 34.1257 28.6326 34.0132 28.9961L33.0857 32.294C32.9451 32.7692 32.8892 33.2446 32.8892 33.6914C32.8892 35.2571 33.8164 36.4022 35.7557 36.4022C37.4139 36.4022 38.7347 35.3407 39.4655 32.7972L38.229 32.3225C37.6106 34.0265 37.0766 34.3346 36.655 34.3346C36.2334 34.3346 36.0085 34.0553 36.0085 33.4966C36.0085 33.2451 36.065 32.9659 36.149 32.6298L37.0486 29.4168C37.2733 28.6624 37.3578 27.9934 37.3578 27.3787C37.3578 24.9751 35.8962 23.7207 34.1257 23.7207C32.4676 23.7207 30.7811 25.2081 29.9381 26.7735L30.5562 23.9637H25.7506L25.076 26.4385H27.3245L25.9399 31.951C24.8526 34.3546 22.8554 34.3936 22.6047 34.3378C22.1932 34.2455 21.9299 34.09 21.9299 33.5582C21.9299 33.2514 21.9861 32.8106 22.1267 32.2792L24.2347 23.9637H18.8948L18.2202 26.4385H20.4403L19.0072 32.2614" fill="white"/>
</svg>
