<svg width="205" height="205" viewBox="0 0 205 205" fill="none" xmlns="http://www.w3.org/2000/svg">
<path d="M102.44 204.49H101.99C45.7533 204.49 0 158.723 0 102.47V102.02C0 45.7668 45.7533 0 101.99 0H102.44C158.676 0 204.43 45.7668 204.43 102.02V102.47C204.43 158.723 158.676 204.49 102.44 204.49ZM101.99 6.92176C49.5661 6.92176 6.91972 49.5807 6.91972 102.02V102.47C6.91972 154.909 49.5661 197.568 101.99 197.568H102.44C154.863 197.568 197.51 154.909 197.51 102.47V102.02C197.51 49.5807 154.863 6.92176 102.44 6.92176H101.99Z" fill="#03D9C8"/>
<path d="M50.5625 69.1277C47.9607 66.712 46.6667 63.7218 46.6667 60.164C46.6667 56.6062 47.9676 53.4844 50.5625 51.0618C53.1643 48.6461 56.5135 47.4348 60.6168 47.4348C64.7202 47.4348 67.938 48.6461 70.5329 51.0618C73.1347 53.4775 74.4286 56.5163 74.4286 60.164C74.4286 63.8118 73.1278 66.712 70.5329 69.1277C67.9311 71.5434 64.6303 72.7547 60.6168 72.7547C56.6034 72.7547 53.1643 71.5434 50.5625 69.1277ZM72.242 82.9851V157.048H48.8464V82.9851H72.242Z" fill="#03D9C8"/>
<path d="M150.123 90.3012C155.223 95.8386 157.77 103.439 157.77 113.115V155.74H135.551V116.119C135.551 111.24 134.284 107.447 131.759 104.747C129.233 102.048 125.828 100.691 121.566 100.691C117.303 100.691 113.899 102.041 111.373 104.747C108.847 107.447 107.581 111.24 107.581 116.119V155.74H85.2305V82.7774H107.581V92.454C109.844 89.2284 112.896 86.6812 116.729 84.8054C120.563 82.9296 124.874 81.9951 129.669 81.9951C138.208 81.9951 145.031 84.7638 150.123 90.3012Z" fill="#03D9C8"/>
</svg>
