<svg width="206" height="206" viewBox="0 0 206 206" fill="none" xmlns="http://www.w3.org/2000/svg">
<path d="M103.168 205.16H102.718C46.4818 205.16 0.728516 159.394 0.728516 103.141V102.69C0.728516 46.4374 46.4818 0.670654 102.718 0.670654H103.168C159.405 0.670654 205.158 46.4374 205.158 102.69V103.141C205.158 159.394 159.405 205.16 103.168 205.16ZM102.718 7.59242C50.2946 7.59242 7.64824 50.2512 7.64824 102.69V103.141C7.64824 155.58 50.2946 198.239 102.718 198.239H103.168C155.592 198.239 198.238 155.58 198.238 103.141V102.69C198.238 50.2512 155.592 7.59242 103.168 7.59242H102.718Z" fill="#007EBB"/>
<path d="M51.2912 69.7982C48.6894 67.3825 47.3955 64.3924 47.3955 60.8346C47.3955 57.2768 48.6963 54.1551 51.2912 51.7324C53.893 49.3167 57.2422 48.1054 61.3456 48.1054C65.449 48.1054 68.6667 49.3167 71.2616 51.7324C73.8634 54.1481 75.1574 57.1868 75.1574 60.8346C75.1574 64.4823 73.8565 67.3825 71.2616 69.7982C68.6598 72.2139 65.3591 73.4252 61.3456 73.4252C57.3322 73.4252 53.893 72.2139 51.2912 69.7982ZM72.9708 83.6556V157.718H49.5752V83.6556H72.9708Z" fill="#007EBB"/>
<path d="M150.852 90.972C155.952 96.5094 158.498 104.109 158.498 113.786V156.41H136.279V116.79C136.279 111.91 135.013 108.117 132.487 105.418C129.962 102.718 126.557 101.362 122.294 101.362C118.032 101.362 114.627 102.711 112.102 105.418C109.576 108.117 108.31 111.91 108.31 116.79V156.41H85.959V83.448H108.31V93.1245C110.572 89.899 113.624 87.3518 117.458 85.476C121.291 83.6002 125.602 82.6658 130.397 82.6658C138.936 82.6658 145.759 85.4346 150.852 90.972Z" fill="#007EBB"/>
</svg>
