<svg width="57" height="56" viewBox="0 0 57 56" fill="none" xmlns="http://www.w3.org/2000/svg">
<g clip-path="url(#clip0_103_204)">
<path d="M19.499 13H36.501C40.088 13 43 15.9121 43 19.499V36.501C43 40.088 40.088 43 36.501 43H19.499C15.9121 43 13 40.088 13 36.501V19.499C13 15.9121 15.9121 13 19.499 13Z" fill="#FFD02F"/>
<path d="M33.8463 16.7466H30.5524L33.2959 21.5676L27.2586 16.7466H23.9647L26.9833 22.6419L20.6708 16.7466H17.377L20.6708 24.2489L17.377 39.2533H20.6708L26.9833 23.1746L23.9647 39.2533H27.2586L33.2959 22.1092L30.5524 39.2533H33.8463L39.8837 20.4933L33.8463 16.7466Z" fill="#050038"/>
</g>
<defs>
<clipPath id="clip0_103_204">
<rect width="30" height="30" fill="white" transform="translate(13 13)"/>
</clipPath>
</defs>
</svg>
