<svg width="56" height="56" viewBox="0 0 56 56" fill="none" xmlns="http://www.w3.org/2000/svg">
<mask id="mask0_195_5344" style="mask-type:luminance" maskUnits="userSpaceOnUse" x="8" y="8" width="40" height="40">
<path d="M48 8H8V48H48V8Z" fill="white"/>
</mask>
<g mask="url(#mask0_195_5344)">
<path d="M8.30078 18.0747C8.30078 12.6253 12.7251 8.19922 18.1762 8.19922H37.9254C43.3764 8.19922 47.8008 12.6236 47.8008 18.0747V37.8238C47.8008 43.2748 43.3764 47.6992 37.9254 47.6992H18.1762C12.7251 47.6992 8.30078 43.2748 8.30078 37.8238V18.0747Z" fill="#FFDD33"/>
<path fill-rule="evenodd" clip-rule="evenodd" d="M34.5575 15.7344H30.9742L33.9631 20.9845L27.3908 15.7344H23.8074L27.0936 22.1463L20.224 15.7344H16.6406L20.224 23.9026L16.6406 40.2372H20.224L27.0936 22.7391L23.8074 40.2372H27.3908L33.9631 21.5688L30.9742 40.2372H34.5575L41.1299 19.8227L34.5575 15.7428V15.7344Z" fill="#1C1C1E"/>
</g>
</svg>
