<svg width="56" height="56" viewBox="0 0 56 56" fill="none" xmlns="http://www.w3.org/2000/svg">
<g clip-path="url(#clip0_104_134)">
<path fill-rule="evenodd" clip-rule="evenodd" d="M15.6216 18.3389C16.5499 19.093 16.8982 19.0355 18.6414 18.9192L35.075 17.9324C35.4236 17.9324 35.1338 17.5847 35.0175 17.5269L32.2882 15.5539C31.7653 15.1479 31.0685 14.6829 29.7332 14.7992L13.8204 15.9598C13.2401 16.0174 13.1242 16.3075 13.3553 16.5401L15.6216 18.3389ZM16.6083 22.1687V39.4598C16.6083 40.3891 17.0727 40.7368 18.1179 40.6793L36.1785 39.6342C37.2242 39.5767 37.3407 38.9375 37.3407 38.1826V21.0076C37.3407 20.2539 37.0507 19.8475 36.4106 19.9055L17.5371 21.0076C16.8406 21.0661 16.6082 21.4145 16.6082 22.1687H16.6083ZM34.4377 23.0962C34.5535 23.619 34.4377 24.1413 33.9139 24.2L33.0438 24.3734V37.1388C32.2882 37.5449 31.5915 37.777 31.0109 37.777C30.0814 37.777 29.8486 37.4867 29.1524 36.6168L23.4603 27.681V36.3267L25.2615 36.7331C25.2615 36.7331 25.2615 37.777 23.8083 37.777L19.8022 38.0094C19.6858 37.777 19.8022 37.1973 20.2085 37.0812L21.254 36.7914V25.3601L19.8025 25.2438C19.686 24.7211 19.976 23.9673 20.7896 23.9089L25.0872 23.6192L31.0109 32.6713V24.6635L29.5006 24.4902C29.3847 23.8512 29.8486 23.3871 30.4294 23.3296L34.4377 23.0962ZM12.4844 14.3932L29.0362 13.1743C31.0688 13 31.5918 13.1168 32.8693 14.0448L38.1528 17.7583C39.0246 18.3969 39.3152 18.5708 39.3152 19.2669V39.6342C39.3152 40.9107 38.8502 41.6656 37.2245 41.7811L18.0028 42.9418C16.7824 43 16.2016 42.8261 15.5625 42.0132L11.6716 36.965C10.9745 36.0357 10.6846 35.3405 10.6846 34.5272V16.4234C10.6846 15.3795 11.1497 14.5088 12.4844 14.3932V14.3932Z" fill="white"/>
</g>
<defs>
<clipPath id="clip0_104_134">
<rect width="30" height="30" fill="white" transform="translate(10 13)"/>
</clipPath>
</defs>
</svg>
