<svg width="56" height="56" viewBox="0 0 56 56" fill="none" xmlns="http://www.w3.org/2000/svg">
<g clip-path="url(#clip0_103_263)">
<path fill-rule="evenodd" clip-rule="evenodd" d="M18.6216 18.3389C19.5499 19.093 19.8982 19.0355 21.6414 18.9192L38.075 17.9324C38.4236 17.9324 38.1338 17.5847 38.0175 17.5269L35.2882 15.5539C34.7653 15.1479 34.0685 14.6829 32.7332 14.7992L16.8204 15.9598C16.2401 16.0174 16.1242 16.3075 16.3553 16.5401L18.6216 18.3389ZM19.6083 22.1687V39.4598C19.6083 40.3891 20.0727 40.7368 21.1179 40.6793L39.1785 39.6342C40.2242 39.5767 40.3407 38.9375 40.3407 38.1826V21.0076C40.3407 20.2539 40.0507 19.8475 39.4106 19.9055L20.5371 21.0076C19.8406 21.0661 19.6082 21.4145 19.6082 22.1687H19.6083ZM37.4377 23.0962C37.5535 23.619 37.4377 24.1413 36.9139 24.2L36.0438 24.3734V37.1388C35.2882 37.5449 34.5915 37.777 34.0109 37.777C33.0814 37.777 32.8486 37.4867 32.1524 36.6168L26.4603 27.681V36.3267L28.2615 36.7331C28.2615 36.7331 28.2615 37.777 26.8083 37.777L22.8022 38.0094C22.6858 37.777 22.8022 37.1973 23.2085 37.0812L24.254 36.7914V25.3601L22.8025 25.2438C22.686 24.7211 22.976 23.9673 23.7896 23.9089L28.0872 23.6192L34.0109 32.6713V24.6635L32.5006 24.4902C32.3847 23.8512 32.8486 23.3871 33.4294 23.3296L37.4377 23.0962ZM15.4844 14.3932L32.0362 13.1743C34.0688 13 34.5918 13.1168 35.8693 14.0448L41.1528 17.7583C42.0246 18.3969 42.3152 18.5708 42.3152 19.2669V39.6342C42.3152 40.9107 41.8502 41.6656 40.2245 41.7811L21.0028 42.9418C19.7824 43 19.2016 42.8261 18.5625 42.0132L14.6716 36.965C13.9745 36.0357 13.6846 35.3405 13.6846 34.5272V16.4234C13.6846 15.3795 14.1497 14.5088 15.4844 14.3932V14.3932Z" fill="black"/>
</g>
<defs>
<clipPath id="clip0_103_263">
<rect width="30" height="30" fill="white" transform="translate(13 13)"/>
</clipPath>
</defs>
</svg>
