<svg width="57" height="56" viewBox="0 0 57 56" fill="none" xmlns="http://www.w3.org/2000/svg">
<path d="M12.5142 12.7037H43.7991V43.2963H12.5142V12.7037Z" fill="url(#paint0_linear_102_5170)"/>
<path d="M15.0024 15.1366H41.3114V40.8636H15.0024V15.1366Z" fill="url(#paint1_linear_102_5170)"/>
<path d="M20.0743 21.3261C20.0743 21.3261 22.0524 21.2744 23.6806 21.2744C25.326 21.2744 26.4992 21.6593 27.2869 22.3358C28.0397 22.975 28.5473 24.0647 28.5473 25.3052C28.5473 26.5457 28.1621 27.5608 27.4617 28.2745C26.5514 29.1955 25.4907 29.7406 23.6806 29.816C23.1806 29.8369 22.7178 29.8418 22.7178 29.8418V33.8743H20.0742L20.0743 21.3261V21.3261ZM22.7177 27.6077C23.0049 27.6355 23.1849 27.6222 23.6106 27.6171C25.0286 27.6002 25.9036 26.7427 25.9036 25.4458C25.9036 24.2808 25.1821 23.3243 23.8208 23.2747C23.2782 23.255 22.7177 23.2747 22.7177 23.2747V27.6077V27.6077Z" fill="url(#paint2_linear_102_5170)"/>
<path d="M29.5561 31.065C30.0889 31.3901 31.3461 31.877 32.2031 31.877C33.0787 31.877 33.4402 31.5702 33.4402 31.0918C33.4402 30.6128 33.1547 30.1096 32.0694 29.7458C30.1465 29.0947 29.4039 28.3152 29.4232 27.2243C29.4232 25.4622 30.908 24.1411 33.2116 24.1411C34.2968 24.1411 35.1637 24.4939 35.7343 24.7809V26.8956C35.3151 26.6656 34.1064 26.1521 33.3069 26.1521C32.6021 26.1521 32.2026 26.4393 32.2026 26.9176C32.2026 27.3581 32.5645 27.588 33.7067 27.9903C35.477 28.603 36.2196 29.5027 36.2383 30.8815C36.2383 32.6242 34.8874 34.01 32.2026 33.9259C31.2811 33.8971 30.2603 33.5348 29.5559 33.1524L29.5561 31.065V31.065Z" fill="url(#paint3_linear_102_5170)"/>
<defs>
<linearGradient id="paint0_linear_102_5170" x1="20.1169" y1="11.1061" x2="32.0007" y2="36.3574" gradientUnits="userSpaceOnUse">
<stop stop-color="#A0CBFF"/>
<stop offset="0.394" stop-color="#A0CBFE"/>
<stop offset="0.583" stop-color="#8EC2FC"/>
<stop offset="0.784" stop-color="#83BCFB"/>
<stop offset="1" stop-color="#7FBAFB"/>
</linearGradient>
<linearGradient id="paint1_linear_102_5170" x1="24.3739" y1="15.4991" x2="31.0834" y2="37.92" gradientUnits="userSpaceOnUse">
<stop stop-color="#090058"/>
<stop offset="1" stop-color="#070033"/>
</linearGradient>
<linearGradient id="paint2_linear_102_5170" x1="16.3868" y1="12.447" x2="28.2704" y2="37.698" gradientUnits="userSpaceOnUse">
<stop stop-color="#A0CBFF"/>
<stop offset="0.394" stop-color="#A0CBFE"/>
<stop offset="0.583" stop-color="#8EC2FC"/>
<stop offset="0.784" stop-color="#83BCFB"/>
<stop offset="1" stop-color="#7FBAFB"/>
</linearGradient>
<linearGradient id="paint3_linear_102_5170" x1="23.2176" y1="9.15659" x2="35.1484" y2="34.5077" gradientUnits="userSpaceOnUse">
<stop stop-color="#A0CBFF"/>
<stop offset="0.394" stop-color="#A0CBFE"/>
<stop offset="0.583" stop-color="#8EC2FC"/>
<stop offset="0.784" stop-color="#83BCFB"/>
<stop offset="1" stop-color="#7FBAFB"/>
</linearGradient>
</defs>
</svg>
