<svg width="57" height="56" viewBox="0 0 57 56" fill="none" xmlns="http://www.w3.org/2000/svg">
<path fill-rule="evenodd" clip-rule="evenodd" d="M18.938 23.9855L28.2437 41.9959L12.6025 23.9855H18.938Z" fill="#EA6C00"/>
<path fill-rule="evenodd" clip-rule="evenodd" d="M37.5522 23.9855L28.2466 41.9959L43.8877 23.9855H37.5522Z" fill="#EA6C00"/>
<path fill-rule="evenodd" clip-rule="evenodd" d="M18.9375 23.9855H37.5488L28.2432 41.9959L18.9375 23.9855Z" fill="#FDAD00"/>
<path fill-rule="evenodd" clip-rule="evenodd" d="M28.2432 14.0041L19.4273 14.9256L18.9375 23.9855L28.2432 14.0041Z" fill="#FDD231"/>
<path fill-rule="evenodd" clip-rule="evenodd" d="M28.2432 14.0041L37.059 14.9256L37.5488 23.9855L28.2432 14.0041Z" fill="#FDD231"/>
<path fill-rule="evenodd" clip-rule="evenodd" d="M43.8877 23.9855L37.0624 14.9256L37.5522 23.9855H43.8877Z" fill="#FDAD00"/>
<path fill-rule="evenodd" clip-rule="evenodd" d="M12.6025 23.9855L19.4278 14.9256L18.938 23.9855H12.6025Z" fill="#FDAD00"/>
<path fill-rule="evenodd" clip-rule="evenodd" d="M28.2432 14.0041L18.9375 23.9855H37.5488L28.2432 14.0041Z" fill="#FEEEB7"/>
</svg>
