<svg width="56" height="56" viewBox="0 0 56 56" fill="none" xmlns="http://www.w3.org/2000/svg">
<g clip-path="url(#clip0_103_239)">
<path d="M38.7143 13H17.2857C14.9188 13 13 14.9188 13 17.2857V38.7143C13 41.0812 14.9188 43 17.2857 43H38.7143C41.0812 43 43 41.0812 43 38.7143V17.2857C43 14.9188 41.0812 13 38.7143 13Z" fill="#3A48FF"/>
<path d="M32.3391 25.4071C32.3391 25.4071 30.8926 29.95 30.7748 30.325C30.7319 29.9393 29.6712 21.7857 29.6712 21.7857C27.2069 21.7857 25.8891 23.5428 25.1926 25.3964C25.1926 25.3964 23.4355 29.95 23.2855 30.3357C23.2748 29.9821 23.0176 25.45 23.0176 25.45C22.8676 23.1786 20.7891 21.7964 19.1069 21.7964L21.1426 34.15C23.7248 34.1393 25.1176 32.3928 25.8462 30.5393C25.8462 30.5393 27.3998 26.5214 27.4641 26.3393C27.4748 26.5107 28.5784 34.15 28.5784 34.15C31.1712 34.15 32.5641 32.5107 33.3141 30.7214L36.9462 21.7964C34.3855 21.7964 33.0355 23.5428 32.3391 25.4071Z" fill="white"/>
</g>
<defs>
<clipPath id="clip0_103_239">
<rect width="30" height="30" fill="white" transform="translate(13 13)"/>
</clipPath>
</defs>
</svg>
