<svg width="205" height="205" viewBox="0 0 205 205" fill="none" xmlns="http://www.w3.org/2000/svg">
<path d="M102.965 204.49H102.516C46.2791 204.49 0.525879 158.723 0.525879 102.47V102.02C0.525879 45.7667 46.2791 0 102.516 0H102.965C159.202 0 204.955 45.7667 204.955 102.02V102.47C204.955 158.723 159.202 204.49 102.965 204.49ZM102.516 6.92176C50.0919 6.92176 7.4456 49.5806 7.4456 102.02V102.47C7.4456 154.909 50.0919 197.568 102.516 197.568H102.965C155.389 197.568 198.036 154.909 198.036 102.47V102.02C198.036 49.5806 155.389 6.92176 102.965 6.92176H102.516Z" fill="#383D38"/>
<path d="M44.044 48.1894L89.5896 109.101L43.7603 158.626H54.0776L94.2051 115.268L126.624 158.626H161.728L113.622 94.2883L156.282 48.1894H145.965L109.013 88.121L79.1547 48.1894H44.0508H44.044ZM59.212 55.7895H75.335L146.546 151.026H130.423L59.212 55.7895Z" fill="#383D38"/>
</svg>
