<svg width="205" height="205" viewBox="0 0 205 205" fill="none" xmlns="http://www.w3.org/2000/svg">
<path d="M102.44 204.49H101.99C45.7532 204.49 0 158.723 0 102.47V102.02C0 45.7666 45.7532 0 101.99 0H102.44C158.676 0 204.429 45.7666 204.429 102.02V102.47C204.429 158.723 158.676 204.49 102.44 204.49ZM101.99 6.92176C49.566 6.92176 6.91972 49.5805 6.91972 102.02V102.47C6.91972 154.909 49.566 197.568 101.99 197.568H102.44C154.863 197.568 197.51 154.909 197.51 102.47V102.02C197.51 49.5805 154.863 6.92176 102.44 6.92176H101.99Z" fill="#03D9C8"/>
<path d="M43.5181 48.1892L89.0637 109.101L43.2344 158.626H53.5517L93.6792 115.268L126.098 158.626H161.202L113.096 94.2882L155.756 48.1892H145.439L108.487 88.121L78.6288 48.1892H43.5249H43.5181ZM58.6861 55.7895H74.8091L146.02 151.026H129.897L58.6861 55.7895Z" fill="#03D9C8"/>
</svg>
