<svg width="57" height="56" viewBox="0 0 57 56" fill="none" xmlns="http://www.w3.org/2000/svg">
<path d="M13.8179 14.1296H42.4957V41.8703H13.8179V14.1296Z" fill="#2E001E"/>
<path d="M12.5142 12.8333V43.1666H43.7991V12.8333H12.5142ZM13.8177 14.1296H42.4955V41.8703H13.8177V14.1296Z" fill="#FF2BC2"/>
<path d="M35.2351 25.5759C35.0395 25.4852 34.7919 25.4463 34.479 25.4463C32.8366 25.4463 31.7416 26.7037 31.7416 28.7907C31.7416 31.1759 32.8626 32.1351 34.3226 32.1351C34.6354 32.1351 34.9744 32.0963 35.222 31.9926V25.5759H35.2351ZM29.3952 28.8944C29.3952 25.8741 31.3505 23.5148 34.5572 23.5148C34.831 23.5148 34.9744 23.5148 35.2351 23.5407V20.1704C35.2351 20.0926 35.3002 20.0407 35.3654 20.0407H37.4641C37.5684 20.0407 37.5945 20.0796 37.5945 20.1444V31.9926C37.5945 32.3426 37.5945 32.7833 37.6596 33.2629C37.6596 33.3537 37.6596 33.3666 37.5814 33.4055C36.4865 33.924 35.3393 34.1574 34.2444 34.1574C31.4157 34.1574 29.3952 32.4203 29.3952 28.8944V28.8944ZM24.9502 26.7944L28.6001 33.8333C28.6652 33.937 28.6261 34.0407 28.5218 34.0407H26.2537C26.1103 34.0407 26.0451 34.0018 25.9799 33.8722C25.1457 32.1611 24.2984 30.3852 23.425 28.5444H23.3989C22.6168 30.2814 21.7565 32.174 20.9222 33.8851C20.857 33.9888 20.7919 34.0277 20.6876 34.0277H18.5237C18.3934 34.0277 18.3803 33.924 18.4455 33.8463L22.0172 27.0148L18.5628 20.2222C18.4846 20.1185 18.5628 20.0278 18.6541 20.0278H20.8962C21.0265 20.0278 21.0917 20.0537 21.1308 20.1704C21.952 21.8944 22.7863 23.5926 23.5684 25.3296H23.5945C24.3505 23.6185 25.1848 21.8944 25.9799 20.1963C26.0451 20.0926 26.0842 20.0278 26.2146 20.0278H28.3133C28.4176 20.0278 28.4567 20.1055 28.3915 20.2222L24.9502 26.7944V26.7944Z" fill="#FF2BC2"/>
</svg>
